<svg xmlns="http://www.w3.org/2000/svg" viewBox="0 0 640 360" fill="none">
  <rect width="640" height="360" fill="#0f172a"/>
  <rect x="0" y="0" width="640" height="28" fill="#1e293b"/>
  <circle cx="16" cy="14" r="5" fill="#ef4444"/>
  <circle cx="32" cy="14" r="5" fill="#f59e0b"/>
  <circle cx="48" cy="14" r="5" fill="#22c55e"/>
  <rect x="260" y="8" width="100" height="12" rx="6" fill="#334155"/>

  <rect x="18" y="44" width="200" height="36" rx="6" fill="#22c55e" opacity="0.1"/>
  <text x="30" y="66" font-family="monospace" font-size="12" fill="#22c55e" font-weight="bold">Clean Architecture</text>

  <rect x="18" y="92" width="200" height="36" rx="6" fill="#3b82f6" opacity="0.1"/>
  <text x="30" y="114" font-family="monospace" font-size="12" fill="#3b82f6" font-weight="bold">Domain-Driven Design</text>

  <rect x="18" y="140" width="200" height="36" rx="6" fill="#a855f7" opacity="0.1"/>
  <text x="30" y="162" font-family="monospace" font-size="12" fill="#a855f7" font-weight="bold">Hexagonal Architecture</text>

  <rect x="240" y="44" width="200" height="36" rx="6" fill="#f59e0b" opacity="0.1"/>
  <text x="252" y="66" font-family="monospace" font-size="12" fill="#f59e0b" font-weight="bold">Java 25 LTS</text>

  <rect x="240" y="92" width="200" height="36" rx="6" fill="#06b6d4" opacity="0.1"/>
  <text x="252" y="114" font-family="monospace" font-size="12" fill="#06b6d4" font-weight="bold">Spring Boot 4.0</text>

  <rect x="240" y="140" width="200" height="36" rx="6" fill="#f43f5e" opacity="0.1"/>
  <text x="252" y="162" font-family="monospace" font-size="12" fill="#f43f5e" font-weight="bold">Swagger / OpenAPI</text>

  <line x1="18" y1="196" x2="640" y2="196" stroke="#1e293b" stroke-width="1"/>

  <text x="18" y="220" font-family="monospace" font-size="10" fill="#64748b">Layer Architecture:</text>
  <rect x="18" y="232" width="604" height="80" rx="6" fill="#1e293b" stroke="#334155" stroke-width="1"/>
  <rect x="26" y="240" width="80" height="64" rx="4" fill="#22c55e" opacity="0.15"/>
  <text x="35" y="278" font-family="monospace" font-size="9" fill="#22c55e">Domain</text>
  <rect x="118" y="240" width="80" height="64" rx="4" fill="#f59e0b" opacity="0.15"/>
  <text x="123" y="278" font-family="monospace" font-size="9" fill="#f59e0b">App</text>
  <rect x="210" y="240" width="80" height="64" rx="4" fill="#3b82f6" opacity="0.15"/>
  <text x="216" y="278" font-family="monospace" font-size="9" fill="#3b82f6">Adapter</text>
  <rect x="302" y="240" width="80" height="64" rx="4" fill="#a855f7" opacity="0.15"/>
  <text x="309" y="278" font-family="monospace" font-size="9" fill="#a855f7">Infra</text>
  <rect x="394" y="240" width="80" height="64" rx="4" fill="#06b6d4" opacity="0.15"/>
  <text x="400" y="278" font-family="monospace" font-size="9" fill="#06b6d4">Config</text>

  <rect x="0" y="332" width="640" height="28" fill="#1e293b"/>
  <rect x="9" y="338" width="180" height="16" rx="4" fill="#334155"/>
  <text x="16" y="350" font-family="monospace" font-size="9" fill="#3b82f6">Swagger UI: /swagger-ui.html</text>
</svg>
